<svg xmlns="http://www.w3.org/2000/svg" width="800" zoomAndPan="magnify"
     viewBox="0 0 600 599.999999" height="800" preserveAspectRatio="xMidYMid meet" version="1.0">
    <defs>
        <clipPath id="2dd92f40d0">
            <path d="M 7.226562 46.550781 L 593 46.550781 L 593 554 L 7.226562 554 Z M 7.226562 46.550781 "
                  clip-rule="nonzero"/>
        </clipPath>
        <clipPath id="e47ab2f6ce">
            <path
                d="M 446.210938 379.199219 L 446.210938 553.453125 L 432.269531 545.425781 L 295.261719 466.464844 L 281.277344 458.433594 L 295.222656 450.367188 L 432.230469 371.167969 L 446.171875 363.101562 L 446.171875 379.199219 M 427.570312 379.199219 L 436.851562 379.199219 L 441.511719 387.265625 L 304.503906 466.464844 L 299.84375 458.394531 L 304.503906 450.324219 L 441.511719 529.289062 L 436.851562 537.355469 L 427.570312 537.355469 Z M 304.503906 466.464844 L 167.496094 545.425781 L 153.554688 553.453125 L 153.554688 363.101562 L 167.496094 371.167969 L 304.503906 450.367188 L 318.449219 458.433594 L 304.464844 466.464844 M 295.183594 450.367188 L 299.84375 458.433594 L 295.183594 466.503906 L 158.175781 387.265625 L 162.835938 379.199219 L 172.121094 379.199219 L 172.121094 537.355469 L 162.835938 537.355469 L 158.175781 529.289062 L 295.222656 450.324219 Z M 446.210938 62.648438 L 446.210938 236.902344 L 432.269531 228.875 L 295.222656 149.914062 L 281.238281 141.882812 L 295.183594 133.816406 L 432.230469 54.617188 L 446.210938 46.550781 L 446.210938 62.648438 M 427.609375 62.648438 L 436.890625 62.648438 L 441.550781 70.714844 L 304.503906 149.914062 L 299.84375 141.84375 L 304.503906 133.777344 L 441.511719 212.738281 L 436.851562 220.804688 L 427.570312 220.804688 L 427.570312 62.648438 Z M 578.832031 308.03125 L 441.550781 387.265625 L 427.609375 395.296875 L 427.609375 204.707031 L 441.550781 212.738281 L 578.832031 291.933594 L 592.777344 300.003906 L 578.832031 308.070312 M 569.550781 291.972656 L 574.210938 300.042969 L 569.550781 308.109375 L 432.269531 228.914062 L 436.929688 220.84375 L 446.210938 220.84375 L 446.210938 379.199219 L 436.890625 379.199219 L 432.230469 371.128906 L 569.511719 291.933594 Z M 441.550781 387.265625 L 304.503906 466.464844 L 299.84375 469.164062 L 295.183594 466.464844 L 158.175781 387.265625 L 144.230469 379.199219 L 158.175781 371.128906 L 295.222656 291.972656 L 299.882812 289.269531 L 304.542969 291.972656 L 441.550781 371.167969 L 455.496094 379.238281 L 441.550781 387.304688 M 432.230469 371.207031 L 436.890625 379.277344 L 432.230469 387.34375 L 295.222656 308.070312 L 299.882812 300.003906 L 304.542969 308.070312 L 167.496094 387.265625 L 162.835938 379.199219 L 167.496094 371.128906 L 304.503906 450.367188 L 299.84375 458.433594 L 295.183594 450.367188 L 432.191406 371.167969 Z M 172.121094 220.804688 L 172.121094 395.296875 L 158.175781 387.226562 L 21.167969 308.070312 L 7.226562 300.003906 L 21.167969 291.933594 L 158.175781 212.777344 L 172.121094 204.707031 L 172.121094 220.804688 M 153.515625 220.804688 L 162.796875 220.804688 L 167.457031 228.875 L 30.453125 308.070312 L 25.828125 300.003906 L 30.492188 291.933594 L 167.496094 371.167969 L 162.835938 379.238281 L 153.554688 379.238281 L 153.554688 220.804688 Z M 446.171875 220.804688 L 446.171875 395.296875 L 432.230469 387.226562 L 295.222656 308.070312 L 290.5625 305.367188 L 290.5625 125.785156 L 304.503906 133.816406 L 441.511719 212.777344 L 446.171875 215.480469 L 446.171875 220.84375 M 427.570312 220.84375 L 436.851562 220.84375 L 432.191406 228.914062 L 295.222656 149.914062 L 299.882812 141.84375 L 309.164062 141.84375 L 309.164062 300.003906 L 299.882812 300.003906 L 304.542969 291.933594 L 441.550781 371.128906 L 436.890625 379.199219 L 427.609375 379.199219 L 427.609375 220.804688 Z M 304.503906 149.914062 L 167.496094 228.875 L 153.554688 236.902344 L 153.554688 46.550781 L 167.496094 54.617188 L 304.503906 133.816406 L 318.449219 141.882812 L 304.464844 149.914062 M 295.183594 133.816406 L 299.84375 141.882812 L 295.183594 149.953125 L 158.175781 70.714844 L 162.835938 62.648438 L 172.121094 62.648438 L 172.121094 220.804688 L 162.835938 220.804688 L 158.175781 212.738281 L 295.222656 133.816406 Z M 309.125 141.882812 L 309.125 305.367188 L 304.464844 308.070312 L 167.496094 387.265625 L 153.554688 395.335938 L 153.554688 215.441406 L 158.214844 212.738281 L 295.222656 133.816406 L 309.164062 125.785156 L 309.164062 141.882812 M 290.5625 141.882812 L 299.84375 141.882812 L 304.503906 149.953125 L 167.496094 228.875 L 162.835938 220.804688 L 172.121094 220.804688 L 172.121094 379.199219 L 162.835938 379.199219 L 158.175781 371.128906 L 295.222656 291.972656 L 299.882812 300.042969 L 290.5625 300.042969 L 290.5625 141.84375 Z M 290.5625 141.882812 "
                clip-rule="nonzero"/>
        </clipPath>
    </defs>
    <g clip-path="url(#2dd92f40d0)">
        <g clip-path="url(#e47ab2f6ce)">
            <path fill="#ffffff"
                  d="M 7.226562 46.550781 L 593.328125 46.550781 L 593.328125 553.449219 L 7.226562 553.449219 Z M 7.226562 46.550781 "
                  fill-opacity="1" fill-rule="nonzero"/>
        </g>
    </g>
</svg>
